<svg width="473" height="350" viewBox="0 0 473 350" fill="none" xmlns="http://www.w3.org/2000/svg">
<path d="M316.197 154.251C322.037 152.511 325.577 146.461 324.607 139.871C323.687 133.581 318.967 129.181 313.117 129.181H313.007C244.617 129.761 183.867 147.741 153.747 158.411C132.407 165.971 113.797 174.261 99.9369 182.411C78.7869 194.821 75.8768 202.731 75.5368 207.601C75.1168 213.521 78.3269 221.461 104.437 239.371C121.897 251.371 146.337 265.371 173.237 278.731C239.887 311.921 312.817 337.651 373.317 349.321C374.158 349.479 375.011 349.56 375.867 349.561C382.357 349.561 387.757 344.741 389.317 337.561C391.017 329.691 387.597 322.101 380.997 319.111C339.227 300.171 303.687 281.291 278.237 264.511C233.867 235.271 228.147 218.151 228.687 210.511C230.057 191.221 262.777 170.191 316.197 154.251Z" fill="#84EA63"/>
<path d="M1.05689 37.4205C1.49665 39.0669 2.46679 40.5224 3.81715 41.5619C5.16751 42.6013 6.82278 43.1667 8.52687 43.1705C8.79687 43.1705 9.06692 43.1705 9.33692 43.1705C9.99692 43.1005 10.6569 43.0406 11.3369 42.9906C12.9469 42.8506 14.767 42.7005 16.637 42.3605C69.177 32.9205 115.637 28.3605 158.577 28.3605C177.981 28.3407 197.374 29.322 216.677 31.3005C269.677 36.8105 308.167 47.5005 341.527 65.9605C356.642 74.3802 370.328 85.1401 382.077 97.8406C396.217 113.191 396.237 132.701 382.077 148.751C373.195 158.845 362.752 167.451 351.147 174.241C335.957 183.041 308.307 192.671 271.147 202.081C268.721 202.69 266.601 204.165 265.185 206.227C263.769 208.289 263.154 210.797 263.456 213.28C263.758 215.764 264.956 218.051 266.825 219.714C268.694 221.377 271.105 222.3 273.607 222.311C274.2 222.31 274.792 222.26 275.377 222.161C291.147 219.531 303.377 217.021 311.567 214.701C355.017 202.451 386.737 185.571 411.407 161.581C440.607 133.171 440.907 101.161 412.237 71.4305C396.027 54.6306 375.297 41.5806 348.877 31.5606C320.595 20.8379 291.366 12.8024 261.577 7.56056C232.398 2.48622 202.834 -0.0432943 173.217 0.000560543C135.637 0.000560543 96.007 4.00057 55.447 11.8206C43.707 14.0906 32.1769 17.5106 21.0269 20.8206C16.0269 22.3206 10.787 23.8206 5.68702 25.2606C3.72091 25.8015 2.04752 27.0964 1.03077 28.864C0.0140269 30.6316 -0.264086 32.729 0.256845 34.7005L1.05689 37.4205Z" fill="#84EA63"/>
<path d="M437.227 146.021C428.367 163.121 411.227 179.101 383.227 196.301C381.794 197.179 380.686 198.501 380.072 200.065C379.458 201.63 379.37 203.352 379.822 204.97C380.274 206.589 381.242 208.016 382.578 209.036C383.914 210.056 385.546 210.612 387.227 210.621C388.258 210.625 389.279 210.418 390.227 210.011C420.047 197.461 449.867 181.291 466.127 148.261C472.607 135.071 473.997 119.121 470.037 103.351C466.077 87.5807 457.297 73.9607 445.277 64.7907C443.898 63.7374 442.206 63.1785 440.471 63.204C438.736 63.2294 437.06 63.8376 435.713 64.9308C434.366 66.0239 433.426 67.5385 433.044 69.2308C432.662 70.9231 432.86 72.6947 433.607 74.2607C446.727 101.891 447.907 125.361 437.227 146.021Z" fill="#84EA63"/>
</svg>
