<svg width="178" height="157" viewBox="0 0 178 157" fill="none" xmlns="http://www.w3.org/2000/svg">
<g clip-path="url(#clip0_0_3)">
<path d="M120.71 129.99C120.71 130.37 124.85 148.17 152.06 155.95C152.06 155.95 143.16 146.17 143.03 137.39C143.03 137.39 156.2 148.68 176.26 134.63C176.26 134.63 157.32 135.63 148.17 123.59C139.02 111.55 121.08 111.68 120.71 129.99Z" fill="#75B1DE" stroke="#010101" stroke-width="1.98" stroke-linecap="round" stroke-linejoin="round"/>
<path d="M56.01 124.72C55.93 125.09 37.07 138.51 11.53 134C11.53 134 24.86 123.72 30.42 115.57C30.42 115.57 14.72 120.48 0.98999 107.57C0.98999 107.57 9.72999 112.69 27.66 96.51C38.89 86.38 59.71 106.79 56 124.73L56.01 124.72Z" fill="#75B1DE" stroke="#010101" stroke-width="1.98" stroke-linecap="round" stroke-linejoin="round"/>
<path d="M75.61 33.56C74.32 33.45 73.14 33.42 72.09 33.51C64.4 34.18 53.28 36.94 48.43 44.46C48.43 44.46 41.97 55.27 41.64 81.85C41.31 108.44 40.24 121.21 46.09 129.06C51.94 136.92 74.85 138.76 86.55 139.26C91.29 139.46 98.33 139.45 105.17 139.24C109.98 133.07 112.62 125.46 113.64 118.37C115.03 87.69 100.12 53.97 75.61 33.55V33.56Z" fill="white"/>
<path d="M138.39 90.53C135.59 90.53 132.94 91.11 130.54 92.14L131.53 81.09C131.53 81.09 122 48.49 108.29 43.3C96.44 38.82 83.79 34.29 75.61 33.57C100.12 53.99 115.04 87.71 113.64 118.39C112.63 125.48 109.98 133.09 105.17 139.26C115.22 138.96 124.82 138.26 126.01 137.27C128.02 135.6 127.52 125.9 127.52 125.9L127.65 124.44C130.72 126.41 134.41 127.57 138.39 127.57C149.06 127.57 156.78 119.57 156.78 109.34C156.78 99.11 149.05 90.53 138.39 90.53Z" fill="#75B1DE"/>
<path d="M138.39 90.53C135.59 90.53 132.94 91.11 130.54 92.14L131.53 81.09C131.53 81.09 122 48.49 108.29 43.3C94.58 38.12 79.78 32.85 72.09 33.52C64.4 34.19 53.28 36.95 48.43 44.47C48.43 44.47 41.97 55.28 41.64 81.86C41.31 108.44 40.24 121.22 46.09 129.07C51.94 136.93 74.85 138.77 86.55 139.27C98.25 139.77 124 138.94 126.01 137.26C128.02 135.59 127.52 125.89 127.52 125.89L127.65 124.43C130.72 126.4 134.41 127.56 138.39 127.56C149.06 127.56 156.78 119.56 156.78 109.33C156.78 99.1 149.05 90.52 138.39 90.52V90.53Z" stroke="black" stroke-width="1.98" stroke-linecap="round" stroke-linejoin="round"/>
<path d="M57.76 89.02L57.47 104.16" stroke="#010101" stroke-width="1.98" stroke-linecap="round" stroke-linejoin="round"/>
<path d="M81.17 90.74L80.67 106.12" stroke="#010101" stroke-width="1.98" stroke-linecap="round" stroke-linejoin="round"/>
<path d="M64.66 119.37L87.73 114.02C87.73 114.02 88.73 122.38 79.37 125.89C70.01 129.4 64.66 119.37 64.66 119.37Z" fill="#010101" stroke="#010101" stroke-width="1.98" stroke-linecap="round" stroke-linejoin="round"/>
<path d="M83.11 116.47C79.87 118.09 78.03 122.46 78.71 126.09C78.93 126.02 79.15 125.98 79.38 125.89C86.03 123.4 87.44 118.47 87.71 115.82C86.11 115.61 84.49 115.78 83.11 116.47Z" fill="white"/>
<path d="M127.01 61.12C129.67 42.49 124.89 22.94 114.65 6.97999C101.38 0.269988 84.04 -0.400012 57.13 6.75999C20.39 16.54 13.37 59.68 13.37 59.68C11.86 96.26 40.71 104.61 40.71 104.61C40.71 104.61 40.46 59.62 47.15 46.35C54.09 32.57 74.74 33.48 74.74 33.48C74.74 33.48 67.55 45.02 83.94 74.44C86.92 79.79 90.34 83.84 93.94 86.92C109.51 85.58 123.78 77.33 127.02 61.12H127.01Z" fill="white"/>
<path d="M163.6 15.66C155.07 11.15 139.77 21.3 139.77 21.3C135.64 11.9 119.96 0.98999 119.96 0.98999C122.97 4.24999 127.86 16.67 127.86 16.67C123.83 12.67 119.5 9.42999 114.65 6.97999C124.89 22.94 129.67 42.49 127.01 61.12C123.77 77.34 109.5 85.59 93.93 86.92C110.16 100.8 130.12 94.64 130.12 94.64C140.87 86.43 149.18 93.92 149.18 93.92C171 71.6 148.68 31.47 148.68 31.47C149.18 25.83 163.6 15.67 163.6 15.67V15.66Z" fill="#75B1DE"/>
<path d="M13.37 59.68C13.37 59.68 20.39 16.54 57.13 6.75999C93.88 -3.02001 112.81 1.73999 127.86 16.67C127.86 16.67 122.97 4.25999 119.96 0.98999C119.96 0.98999 135.64 11.9 139.77 21.31C139.77 21.31 155.07 11.15 163.6 15.67C163.6 15.67 149.18 25.83 148.68 31.47C148.68 31.47 171 71.6 149.18 93.92C149.18 93.92 140.87 86.43 130.12 94.64C130.12 94.64 100.32 103.87 83.93 74.44C67.54 45.01 74.73 33.48 74.73 33.48C74.73 33.48 54.09 32.58 47.14 46.35C40.45 59.62 40.7 104.61 40.7 104.61C40.7 104.61 11.86 96.26 13.36 59.68H13.37Z" stroke="#010101" stroke-width="1.98" stroke-linecap="round" stroke-linejoin="round"/>
<path d="M43.46 87.26C43.91 87.43 62.8 84.91 62.8 84.91L65.99 74.43L43.6 79.14L43.46 87.26Z" fill="#75B1DE"/>
<path d="M73.03 86.42C73.47 86.72 92.78 91.41 92.78 91.41L96.29 79.24L75.92 77.02L73.03 86.42Z" fill="#75B1DE"/>
<path d="M38.24 83.42C38.73 83.61 63.28 81.33 63.28 81.33L66.5 70.14L38.92 73.61L38.24 83.42Z" fill="white" stroke="#010101" stroke-width="1.98" stroke-linecap="round" stroke-linejoin="round"/>
<path d="M74.7 81.24C75.14 81.54 94.45 86.23 94.45 86.23L97.96 74.06L77.59 71.84L74.7 81.24Z" fill="white" stroke="#010101" stroke-width="1.98" stroke-linecap="round" stroke-linejoin="round"/>
</g>
<defs>
<clipPath id="clip0_0_3">
<rect width="177.26" height="156.94" fill="white"/>
</clipPath>
</defs>
</svg>
