<svg width="300" height="300" viewBox="0 0 300 300" fill="none" xmlns="http://www.w3.org/2000/svg">
<circle cx="150" cy="150" r="139" fill="#E7002A"/>
<path d="M77.634 192.52L82.4098 192.102L92.4871 211.651L92.7928 211.624L99.3225 190.623L104.098 190.205L106.38 216.287L102.636 216.615L100.985 197.741L100.743 197.762L94.6984 217.271L91.591 217.542L82.2498 199.367L82.0078 199.388L83.6601 218.275L79.9159 218.602L77.634 192.52ZM114.305 215.594L110.128 215.959L117.232 189.056L121.778 188.658L133.446 213.919L129.269 214.284L120.028 193.585L119.824 193.603L114.305 215.594ZM114.112 205.319L127.662 204.133L127.952 207.444L114.401 208.63L114.112 205.319ZM149.546 193.133C149.304 191.939 148.662 191.054 147.619 190.478C146.576 189.894 145.307 189.667 143.813 189.797C142.743 189.891 141.832 190.142 141.081 190.55C140.329 190.949 139.762 191.461 139.38 192.084C139.006 192.699 138.851 193.375 138.916 194.114C138.97 194.734 139.161 195.256 139.489 195.681C139.826 196.105 140.245 196.449 140.747 196.713C141.257 196.968 141.797 197.173 142.367 197.328C142.936 197.475 143.481 197.59 144.001 197.673L146.606 198.112C147.456 198.243 148.333 198.445 149.238 198.716C150.143 198.988 150.994 199.375 151.791 199.879C152.588 200.382 153.253 201.034 153.785 201.835C154.325 202.634 154.647 203.62 154.749 204.792C154.878 206.269 154.611 207.614 153.947 208.827C153.292 210.04 152.272 211.04 150.886 211.829C149.509 212.616 147.802 213.099 145.764 213.278C143.811 213.449 142.095 213.286 140.614 212.791C139.134 212.296 137.94 211.515 137.034 210.448C136.127 209.373 135.563 208.053 135.34 206.49L139.288 206.144C139.447 207.08 139.822 207.839 140.411 208.42C141.009 208.993 141.741 209.395 142.609 209.627C143.484 209.85 144.426 209.917 145.437 209.829C146.549 209.731 147.523 209.471 148.358 209.047C149.202 208.614 149.846 208.061 150.292 207.389C150.738 206.708 150.923 205.944 150.849 205.095C150.781 204.322 150.505 203.709 150.021 203.255C149.544 202.8 148.919 202.444 148.143 202.187C147.376 201.929 146.515 201.718 145.56 201.553L142.404 200.983C140.266 200.596 138.537 199.905 137.218 198.908C135.907 197.911 135.172 196.503 135.013 194.687C134.882 193.184 135.175 191.836 135.892 190.644C136.609 189.452 137.636 188.485 138.975 187.744C140.312 186.994 141.855 186.542 143.604 186.389C145.37 186.235 146.955 186.408 148.36 186.91C149.772 187.411 150.917 188.171 151.793 189.189C152.668 190.199 153.184 191.403 153.341 192.801L149.546 193.133ZM156.811 189.007L156.514 185.619L176.7 183.853L176.996 187.241L168.858 187.953L170.844 210.647L166.921 210.99L164.936 188.296L156.811 189.007ZM183.442 209.545L181.16 183.463L197.513 182.032L197.809 185.42L185.392 186.506L186.087 194.453L197.651 193.441L197.946 196.816L186.383 197.828L187.081 205.813L199.651 204.713L199.947 208.101L183.442 209.545ZM205.051 207.654L202.769 181.572L212.066 180.759C214.087 180.582 215.794 180.783 217.188 181.363C218.59 181.942 219.677 182.818 220.447 183.991C221.216 185.156 221.671 186.54 221.811 188.145C221.951 189.741 221.738 191.176 221.174 192.448C220.617 193.712 219.697 194.738 218.414 195.526C217.14 196.313 215.493 196.795 213.472 196.972L206.429 197.588L206.133 194.201L212.819 193.616C214.092 193.504 215.112 193.231 215.878 192.796C216.653 192.361 217.197 191.778 217.509 191.049C217.822 190.321 217.936 189.468 217.85 188.492C217.764 187.507 217.498 186.67 217.053 185.982C216.616 185.293 215.978 184.793 215.138 184.481C214.306 184.16 213.24 184.057 211.941 184.171L207 184.603L208.986 207.31L205.051 207.654ZM216.897 194.76L224.371 205.964L219.888 206.356L212.542 195.141L216.897 194.76Z" fill="white"/>
<path d="M53.8521 143.289C53.3986 141.046 52.1922 139.384 50.2328 138.301C48.272 137.203 45.8878 136.777 43.0801 137.022C41.0701 137.198 39.3591 137.669 37.9473 138.436C36.5341 139.186 35.4688 140.148 34.7515 141.319C34.0488 142.474 33.7582 143.745 33.8796 145.133C33.9815 146.298 34.3406 147.279 34.957 148.077C35.5893 148.874 36.3772 149.52 37.3208 150.016C38.279 150.495 39.2933 150.881 40.3637 151.173C41.4327 151.449 42.4563 151.665 43.4344 151.82L48.3291 152.646C49.926 152.892 51.5746 153.27 53.2749 153.78C54.9753 154.291 56.5742 155.019 58.0715 155.965C59.5689 156.911 60.8174 158.136 61.817 159.64C62.8326 161.142 63.4366 162.995 63.6292 165.196C63.8721 167.972 63.3699 170.499 62.1225 172.779C60.8911 175.056 58.9739 176.936 56.3708 178.418C53.7836 179.898 50.5757 180.805 46.7471 181.14C43.0779 181.461 39.8524 181.157 37.0704 180.227C34.2885 179.297 32.0462 177.829 30.3437 175.824C28.6398 173.803 27.579 171.324 27.1612 168.387L34.5793 167.738C34.8778 169.496 35.5812 170.921 36.6895 172.014C37.8123 173.089 39.1885 173.845 40.8181 174.281C42.4622 174.7 44.2335 174.826 46.1319 174.66C48.2217 174.477 50.0516 173.987 51.6215 173.191C53.206 172.377 54.4173 171.339 55.2552 170.076C56.0917 168.797 56.4402 167.36 56.3006 165.765C56.1736 164.313 55.6549 163.161 54.7444 162.308C53.8499 161.454 52.6741 160.785 51.2173 160.302C49.7763 159.817 48.1582 159.42 46.363 159.111L40.4339 158.039C36.416 157.313 33.1678 156.014 30.6891 154.141C28.2264 152.267 26.8458 149.623 26.5471 146.209C26.3001 143.385 26.8502 140.853 28.1974 138.614C29.5446 136.374 31.4754 134.557 33.9898 133.164C36.5028 131.754 39.4024 130.906 42.6887 130.618C46.0068 130.328 48.9851 130.654 51.6235 131.597C54.2778 132.538 56.4281 133.966 58.0744 135.879C59.7193 137.777 60.6888 140.039 60.9829 142.665L53.8521 143.289Z" fill="white"/>
<path d="M100.877 126.203L108.295 125.554L111.115 157.786C111.415 161.216 110.876 164.326 109.496 167.115C108.115 169.888 106.031 172.16 103.244 173.931C100.456 175.686 97.1 176.735 93.1756 177.078C89.2672 177.42 85.7877 176.969 82.7371 175.725C79.6852 174.465 77.2385 172.589 75.3969 170.098C73.554 167.591 72.4825 164.622 72.1825 161.193L69.3625 128.96L76.7566 128.313L79.5242 159.947C79.7182 162.165 80.3772 164.092 81.501 165.73C82.6408 167.367 84.1553 168.6 86.0445 169.432C87.9323 170.247 90.1126 170.547 92.5852 170.33C95.0739 170.113 97.1769 169.438 98.8945 168.308C100.627 167.159 101.896 165.682 102.702 163.875C103.525 162.067 103.839 160.055 103.645 157.837L100.877 126.203Z" fill="white"/>
<path d="M117.185 131.19L116.629 124.825L154.556 121.506L155.113 127.872L139.822 129.209L143.553 171.851L136.183 172.496L132.452 129.854L117.185 131.19Z" fill="white"/>
<path d="M221.043 115.69L230.017 114.905L248.952 151.635L249.526 151.585L261.795 112.124L270.768 111.339L275.056 160.346L268.021 160.962L264.918 125.499L264.463 125.538L253.106 162.194L247.268 162.705L229.716 128.554L229.261 128.594L232.366 164.081L225.331 164.696L221.043 115.69Z" fill="white"/>
<circle cx="188.099" cy="143.638" r="25.3657" transform="rotate(-5 188.099 143.638)" fill="#F2BF3D"/>
</svg>
